# xmcd
#
# Track frame offsets: 
#        150
#        24795
#        45662
#        65100
#        84442
#        107125
#        131667
#        149505
#        169067
#        193257
#        194587
#        223670
#
# Disc length: 3259 seconds
#
# Revision: 51
# Processed by: cddbd v1.5.2PL0 Copyright (c) Steve Scherf et al.
# Submitted via: ExactAudioCopyFreeDBPlugin 1.0
#
DISCID=b60cb90c
DTITLE=宇多田ヒカル - First Love
DYEAR=1999
DGENRE=JPop
TTITLE0=Automatic -Album Edit-
TTITLE1=Movin' on without you
TTITLE2=In My Room
TTITLE3=First Love
TTITLE4=甘いワナ ～Paint It, Black
TTITLE5=time will tell
TTITLE6=Never Let Go
TTITLE7=B&C -Album Version-
TTITLE8=Another Chance
TTITLE9=Interlude
TTITLE10=Give Me A Reason
TTITLE11=Automatic -Johnny Vicious Remix-
EXTD=YEAR: 1999
EXTT0=
EXTT1=
EXTT2=
EXTT3=
EXTT4=
EXTT5=
EXTT6=
EXTT7=
EXTT8=
EXTT9=
EXTT10=
EXTT11=
PLAYORDER=
